<?xml version="1.0" encoding="UTF-8" standalone="no"?>
<!DOCTYPE svg PUBLIC "-//W3C//DTD SVG 1.1//EN" "http://www.w3.org/Graphics/SVG/1.1/DTD/svg11.dtd">
<svg width="100%" height="100%" viewBox="0 0 128 128" version="1.1" xmlns="http://www.w3.org/2000/svg" xmlns:xlink="http://www.w3.org/1999/xlink" xml:space="preserve" xmlns:serif="http://www.serif.com/" style="fill-rule:evenodd;clip-rule:evenodd;stroke-linejoin:round;stroke-miterlimit:2;">
    <g transform="matrix(0.0515127,0,0,0.0515127,64,64)">
        <g transform="matrix(1,0,0,1,-1200,-1066.67)">
            <g transform="matrix(4.16667,0,0,4.16667,0,0)">
                <path d="M128,64C92.891,64 64,92.891 64,128C64,163.109 92.891,192 128,192C163.109,192 192,163.109 192,128C192,92.891 163.109,64 128,64ZM352,256L128,256C57.3,256 0,198.7 0,128C0,57.3 57.3,0 128,0C176.2,0 218.2,26.6 240,66C261.8,26.6 303.8,0 352,0C422.7,0 480,57.3 480,128C480,198.7 422.7,256 352,256ZM352,64C316.891,64 288,92.891 288,128C288,163.109 316.891,192 352,192C387.109,192 416,163.109 416,128C416,92.891 387.109,64 352,64ZM558.3,259.4C569.1,264.8 576,275.9 576,288L576,480C576,492.1 569.2,503.2 558.3,508.6C547.4,514 534.5,512.9 524.8,505.6L448,448L448,320L524.8,262.4C534.5,255.1 547.5,254 558.3,259.4ZM32,288L352,288C387.3,288 416,316.7 416,352L416,448C416,483.3 387.3,512 352,512L128,512C92.7,512 64,483.3 64,448L64,352L32,352C14.3,352 0,337.7 0,320C0,302.3 14.3,288 32,288Z" style="fill:rgb(255,27,12);fill-rule:nonzero;"/>
            </g>
        </g>
    </g>
</svg>
